<?xml version="1.0" encoding="iso-8859-1"?>
<!-- Generator: Adobe Illustrator 19.0.0, SVG Export Plug-In . SVG Version: 6.00 Build 0)  -->
<svg version="1.1" id="Layer_1" xmlns="http://www.w3.org/2000/svg" xmlns:xlink="http://www.w3.org/1999/xlink" x="0px" y="0px"
	 viewBox="0 0 496 496" style="enable-background:new 0 0 496 496;" xml:space="preserve">
<path style="fill:#333333;" d="M496,248c0,136.8-111.2,248-248,248S0,384.8,0,248S111.2,0,248,0S496,111.2,496,248z"/>
<path d="M248,0c136.8,0,248,111.2,248,248S384.8,496,248,496"/>
<path style="fill:#232322;" d="M72.8,72.8c96.8-96.8,253.6-96.8,350.4,0s96.8,253.6,0,350.4"/>
<path d="M334.4,268.8c0,1.6-0.8,3.2-1.6,4.8c-1.6,4-5.6,6.4-10.4,6.4H172.8c-4,0-8.8-2.4-10.4-6.4c-1.6-4-1.6-8.8,0.8-12L238.4,160
	c2.4-3.2,5.6-4.8,9.6-4.8s7.2,1.6,9.6,4.8l75.2,101.6C333.6,264,334.4,266.4,334.4,268.8z"/>
<path d="M168.8,336c0,12,9.6,24,21.6,24h116c12,0,21.6-12,21.6-24s-9.6-24-21.6-24H189.6C178.4,312,168.8,324,168.8,336z"/>
<path style="fill:#F73974;" d="M334.4,248c0,1.6-0.8,1.6-1.6,3.2c-1.6,4-5.6,4.8-10.4,4.8H172.8c-4,0-8.8-0.8-10.4-4.8
	c-1.6-4-1.6-8,0.8-11.2l75.2-100.8c2.4-3.2,5.6-4.8,9.6-4.8c4,0,7.2,1.6,9.6,4.8l75.2,101.6C333.6,243.2,334.4,245.6,334.4,248z"/>
<path style="fill:#ED266E;" d="M334.4,248c0,1.6-0.8,1.6-1.6,3.2c-1.6,4-5.6,4.8-10.4,4.8H203.2c-4,0-8.8-0.8-10.4-4.8
	c-1.6-4,0-10.4,2.4-15.2l43.2-97.6c2.4-3.2,5.6-4.8,9.6-4.8s7.2,1.6,9.6,4.8L332.8,240C333.6,243.2,334.4,245.6,334.4,248z"/>
<path style="fill:#DD0772;" d="M168.8,316c0,12,9.6,20,21.6,20h116c12,0,21.6-8,21.6-20s-9.6-20-21.6-20H189.6
	C178.4,296,168.8,304,168.8,316z"/>
<g>
</g>
<g>
</g>
<g>
</g>
<g>
</g>
<g>
</g>
<g>
</g>
<g>
</g>
<g>
</g>
<g>
</g>
<g>
</g>
<g>
</g>
<g>
</g>
<g>
</g>
<g>
</g>
<g>
</g>
</svg>
